  0
SECTION
  2
HEADER
  9
$ACADVER
  1
AC1015
  9
$ACADMAINTVER
 70
     6
  9
$DWGCODEPAGE
  3
ANSI_1252
  9
$INSBASE
 10
0.0
 20
0.0
 30
0.0
  9
$EXTMIN
 10
-40.0
 20
-39.8013739162
 30
0.0
  9
$EXTMAX
 10
39.2076007389
 20
39.8013229411
 30
0.0
  9
$LIMMIN
 10
0.0
 20
0.0
  9
$LIMMAX
 10
420.0
 20
297.0
  9
$ORTHOMODE
 70
     0
  9
$REGENMODE
 70
     1
  9
$FILLMODE
 70
     1
  9
$QTEXTMODE
 70
     0
  9
$MIRRTEXT
 70
     1
  9
$LTSCALE
 40
1.0
  9
$ATTMODE
 70
     1
  9
$TEXTSIZE
 40
3.5
  9
$TRACEWID
 40
1.0
  9
$TEXTSTYLE
  7
Standard
  9
$CLAYER
  8
0
  9
$CELTYPE
  6
ByLayer
  9
$CECOLOR
 62
   256
  9
$CELTSCALE
 40
1.0
  9
$DISPSILH
 70
     0
  9
$DIMSCALE
 40
1.0
  9
$DIMASZ
 40
3.302
  9
$DIMEXO
 40
0.0
  9
$DIMDLI
 40
3.75
  9
$DIMRND
 40
0.0
  9
$DIMDLE
 40
0.0
  9
$DIMEXE
 40
1.0
  9
$DIMTP
 40
0.0
  9
$DIMTM
 40
0.0
  9
$DIMTXT
 40
3.5
  9
$DIMCEN
 40
2.5
  9
$DIMTSZ
 40
0.0
  9
$DIMTOL
 70
     0
  9
$DIMLIM
 70
     0
  9
$DIMTIH
 70
     1
  9
$DIMTOH
 70
     1
  9
$DIMSE1
 70
     0
  9
$DIMSE2
 70
     0
  9
$DIMTAD
 70
     1
  9
$DIMZIN
 70
     1
  9
$DIMBLK
  1

  9
$DIMASO
 70
     1
  9
$DIMSHO
 70
     1
  9
$DIMPOST
  1

  9
$DIMAPOST
  1

  9
$DIMALT
 70
     0
  9
$DIMALTD
 70
     3
  9
$DIMALTF
 40
0.0393700787
  9
$DIMLFAC
 40
1.0
  9
$DIMTOFL
 70
     1
  9
$DIMTVP
 40
0.0
  9
$DIMTIX
 70
     0
  9
$DIMSOXD
 70
     0
  9
$DIMSAH
 70
     0
  9
$DIMBLK1
  1

  9
$DIMBLK2
  1

  9
$DIMSTYLE
  2
ISO-25
  9
$DIMCLRD
 70
     0
  9
$DIMCLRE
 70
     0
  9
$DIMCLRT
 70
     0
  9
$DIMTFAC
 40
1.0
  9
$DIMGAP
 40
1.524
  9
$DIMJUST
 70
     0
  9
$DIMSD1
 70
     0
  9
$DIMSD2
 70
     0
  9
$DIMTOLJ
 70
     0
  9
$DIMTZIN
 70
     1
  9
$DIMALTZ
 70
     0
  9
$DIMALTTZ
 70
     0
  9
$DIMUPT
 70
     0
  9
$DIMDEC
 70
     2
  9
$DIMTDEC
 70
     2
  9
$DIMALTU
 70
     2
  9
$DIMALTTD
 70
     3
  9
$DIMTXSTY
  7
Standard
  9
$DIMAUNIT
 70
     0
  9
$DIMADEC
 70
     2
  9
$DIMALTRND
 40
0.0
  9
$DIMAZIN
 70
     0
  9
$DIMDSEP
 70
    44
  9
$DIMATFIT
 70
     3
  9
$DIMFRAC
 70
     0
  9
$DIMLDRBLK
  1

  9
$DIMLUNIT
 70
     2
  9
$DIMLWD
 70
    -2
  9
$DIMLWE
 70
    -2
  9
$DIMTMOVE
 70
     0
  9
$LUNITS
 70
     2
  9
$LUPREC
 70
     2
  9
$SKETCHINC
 40
1.0
  9
$FILLETRAD
 40
0.0
  9
$AUNITS
 70
     0
  9
$AUPREC
 70
     2
  9
$MENU
  1
.
  9
$ELEVATION
 40
0.0
  9
$PELEVATION
 40
0.0
  9
$THICKNESS
 40
0.0
  9
$LIMCHECK
 70
     0
  9
$CHAMFERA
 40
0.0
  9
$CHAMFERB
 40
0.0
  9
$CHAMFERC
 40
0.0
  9
$CHAMFERD
 40
0.0
  9
$SKPOLY
 70
     0
  9
$TDCREATE
 40
2461050.524518588
  9
$TDUCREATE
 40
2461050.232851921
  9
$TDUPDATE
 40
2461050.524566968
  9
$TDUUPDATE
 40
2461050.232900301
  9
$TDINDWG
 40
0.0000000116
  9
$TDUSRTIMER
 40
0.0000000116
  9
$USRTIMER
 70
     1
  9
$ANGBASE
 50
0.0
  9
$ANGDIR
 70
     0
  9
$PDMODE
 70
     0
  9
$PDSIZE
 40
-1.0
  9
$PLINEWID
 40
0.0
  9
$SPLFRAME
 70
     0
  9
$SPLINETYPE
 70
     6
  9
$SPLINESEGS
 70
     8
  9
$HANDSEED
  5
6D
  9
$SURFTAB1
 70
     6
  9
$SURFTAB2
 70
     6
  9
$SURFTYPE
 70
     6
  9
$SURFU
 70
     6
  9
$SURFV
 70
     6
  9
$UCSBASE
  2

  9
$UCSNAME
  2

  9
$UCSORG
 10
0.0
 20
0.0
 30
0.0
  9
$UCSXDIR
 10
1.0
 20
0.0
 30
0.0
  9
$UCSYDIR
 10
0.0
 20
1.0
 30
0.0
  9
$UCSORTHOREF
  2

  9
$UCSORTHOVIEW
 70
     0
  9
$UCSORGTOP
 10
0.0
 20
0.0
 30
0.0
  9
$UCSORGBOTTOM
 10
0.0
 20
0.0
 30
0.0
  9
$UCSORGLEFT
 10
0.0
 20
0.0
 30
0.0
  9
$UCSORGRIGHT
 10
0.0
 20
0.0
 30
0.0
  9
$UCSORGFRONT
 10
0.0
 20
0.0
 30
0.0
  9
$UCSORGBACK
 10
0.0
 20
0.0
 30
0.0
  9
$PUCSBASE
  2

  9
$PUCSNAME
  2

  9
$PUCSORG
 10
0.0
 20
0.0
 30
0.0
  9
$PUCSXDIR
 10
1.0
 20
0.0
 30
0.0
  9
$PUCSYDIR
 10
0.0
 20
1.0
 30
0.0
  9
$PUCSORTHOREF
  2

  9
$PUCSORTHOVIEW
 70
     0
  9
$PUCSORGTOP
 10
0.0
 20
0.0
 30
0.0
  9
$PUCSORGBOTTOM
 10
0.0
 20
0.0
 30
0.0
  9
$PUCSORGLEFT
 10
0.0
 20
0.0
 30
0.0
  9
$PUCSORGRIGHT
 10
0.0
 20
0.0
 30
0.0
  9
$PUCSORGFRONT
 10
0.0
 20
0.0
 30
0.0
  9
$PUCSORGBACK
 10
0.0
 20
0.0
 30
0.0
  9
$USERI1
 70
     0
  9
$USERI2
 70
     0
  9
$USERI3
 70
     0
  9
$USERI4
 70
     0
  9
$USERI5
 70
     0
  9
$USERR1
 40
0.0
  9
$USERR2
 40
0.0
  9
$USERR3
 40
0.0
  9
$USERR4
 40
0.0
  9
$USERR5
 40
0.0
  9
$WORLDVIEW
 70
     1
  9
$SHADEDGE
 70
     3
  9
$SHADEDIF
 70
    70
  9
$TILEMODE
 70
     1
  9
$MAXACTVP
 70
    64
  9
$PINSBASE
 10
0.0
 20
0.0
 30
0.0
  9
$PLIMCHECK
 70
     0
  9
$PEXTMIN
 10
1.0000000000E+20
 20
1.0000000000E+20
 30
1.0000000000E+20
  9
$PEXTMAX
 10
-1.0000000000E+20
 20
-1.0000000000E+20
 30
-1.0000000000E+20
  9
$PLIMMIN
 10
0.0
 20
0.0
  9
$PLIMMAX
 10
420.0
 20
297.0
  9
$UNITMODE
 70
     0
  9
$VISRETAIN
 70
     1
  9
$PLINEGEN
 70
     0
  9
$PSLTSCALE
 70
     1
  9
$TREEDEPTH
 70
  3020
  9
$CMLSTYLE
  2
Standard
  9
$CMLJUST
 70
     0
  9
$CMLSCALE
 40
20.0
  9
$PROXYGRAPHICS
 70
     1
  9
$MEASUREMENT
 70
     1
  9
$CELWEIGHT
370
    -1
  9
$ENDCAPS
280
     0
  9
$JOINSTYLE
280
     0
  9
$LWDISPLAY
290
     1
  9
$INSUNITS
 70
     4
  9
$HYPERLINKBASE
  1

  9
$STYLESHEET
  1

  9
$XEDIT
290
     1
  9
$CEPSNTYPE
380
     0
  9
$PSTYLEMODE
290
     1
  9
$FINGERPRINTGUID
  2
{f7f72e66-2779-411d-aa76-25c3ebf6c92b}
  9
$VERSIONGUID
  2
{FAEB1C32-E019-11D5-929B-00C0DF256EC4}
  9
$EXTNAMES
290
     1
  9
$PSVPSCALE
 40
0.0
  9
$OLESTARTUP
290
     0
  0
ENDSEC
  0
SECTION
  2
CLASSES
  0
CLASS
  1
ACDBDICTIONARYWDFLT
  2
AcDbDictionaryWithDefault
  3
ObjectDBX Classes
 90
        0
280
     0
281
     0
  0
CLASS
  1
VISUALSTYLE
  2
AcDbVisualStyle
  3
ObjectDBX Classes
 90
     4095
280
     0
281
     0
  0
CLASS
  1
MATERIAL
  2
AcDbMaterial
  3
ObjectDBX Classes
 90
     1153
280
     0
281
     0
  0
CLASS
  1
SCALE
  2
AcDbScale
  3
ObjectDBX Classes
 90
     1153
280
     0
281
     0
  0
CLASS
  1
TABLESTYLE
  2
AcDbTableStyle
  3
ObjectDBX Classes
 90
     4095
280
     0
281
     0
  0
CLASS
  1
MLEADERSTYLE
  2
AcDbMLeaderStyle
  3
ACDB_MLEADERSTYLE_CLASS
 90
     4095
280
     0
281
     0
  0
CLASS
  1
SUN
  2
AcDbSun
  3
SCENEOE
 90
     1153
280
     0
281
     0
  0
CLASS
  1
ACDBPLACEHOLDER
  2
AcDbPlaceHolder
  3
ObjectDBX Classes
 90
        0
280
     0
281
     0
  0
CLASS
  1
LAYOUT
  2
AcDbLayout
  3
ObjectDBX Classes
 90
        0
280
     0
281
     0
  0
ENDSEC
  0
SECTION
  2
TABLES
  0
TABLE
  2
VPORT
  5
8
330
0
100
AcDbSymbolTable
 70
     1
  0
VPORT
  5
29
330
8
100
AcDbSymbolTableRecord
100
AcDbViewportTableRecord
  2
*Active
 70
     0
 10
0.0
 20
0.0
 11
1.0
 21
1.0
 12
-0.3961996305
 22
-0.0000254875
 13
0.0
 23
0.0
 14
10.0
 24
10.0
 15
10.0
 25
10.0
 16
0.0
 26
0.0
 36
1.0
 17
0.0
 27
0.0
 37
0.0
 40
81.1947507944
 41
0.9950366491
 42
50.0
 43
0.0
 44
0.0
 50
0.0
 51
0.0
 71
     0
 72
   100
 73
     1
 74
     3
 75
     0
 76
     0
 77
     0
 78
     0
281
     0
 65
     1
110
0.0
120
0.0
130
0.0
111
1.0
121
0.0
131
0.0
112
0.0
122
1.0
132
0.0
 79
     0
146
0.0
  0
ENDTAB
  0
TABLE
  2
LTYPE
  5
5
330
0
100
AcDbSymbolTable
 70
     6
  0
LTYPE
  5
14
330
5
100
AcDbSymbolTableRecord
100
AcDbLinetypeTableRecord
  2
ByBlock
 70
     0
  3

 72
    65
 73
     0
 40
0.0
  0
LTYPE
  5
15
330
5
100
AcDbSymbolTableRecord
100
AcDbLinetypeTableRecord
  2
ByLayer
 70
     0
  3

 72
    65
 73
     0
 40
0.0
  0
LTYPE
  5
16
330
5
100
AcDbSymbolTableRecord
100
AcDbLinetypeTableRecord
  2
Continuous
 70
     0
  3
Solid line
 72
    65
 73
     0
 40
0.0
  0
LTYPE
  5
5E
330
5
100
AcDbSymbolTableRecord
100
AcDbLinetypeTableRecord
  2
HIDDEN
 70
     0
  3
Hidden __ __ __ __ __ __ __ __ __ __ __ __ __ __
 72
    65
 73
     2
 40
1.905
 49
1.27
 74
     0
 49
-0.635
 74
     0
  0
LTYPE
  5
5F
330
5
100
AcDbSymbolTableRecord
100
AcDbLinetypeTableRecord
  2
PHANTOM
 70
     0
  3
Phantom ______  __  __  ______  __  __  ______
 72
    65
 73
     6
 40
12.7
 49
6.35
 74
     0
 49
-1.27
 74
     0
 49
1.27
 74
     0
 49
-1.27
 74
     0
 49
1.27
 74
     0
 49
-1.27
 74
     0
  0
LTYPE
  5
60
330
5
100
AcDbSymbolTableRecord
100
AcDbLinetypeTableRecord
  2
CENTER
 70
     0
  3
Center ____ _ ____ _ ____ _ ____ _ ____ _ ____
 72
    65
 73
     4
 40
10.16
 49
6.35
 74
     0
 49
-1.27
 74
     0
 49
1.27
 74
     0
 49
-1.27
 74
     0
  0
LTYPE
  5
61
330
5
100
AcDbSymbolTableRecord
100
AcDbLinetypeTableRecord
  2
CENTERX2
 70
     0
  3
Center (2x) ________  __  ________  __  _____
 72
    65
 73
     4
 40
20.32
 49
12.7
 74
     0
 49
-2.54
 74
     0
 49
2.54
 74
     0
 49
-2.54
 74
     0
  0
LTYPE
  5
62
330
5
100
AcDbSymbolTableRecord
100
AcDbLinetypeTableRecord
  2
DOT2
 70
     0
  3
Dot (.5x) ........................................
 72
    65
 73
     2
 40
0.635
 49
0.0
 74
     0
 49
-0.635
 74
     0
  0
ENDTAB
  0
TABLE
  2
LAYER
  5
2
330
0
100
AcDbSymbolTable
 70
     1
  0
LAYER
  5
10
330
2
100
AcDbSymbolTableRecord
100
AcDbLayerTableRecord
  2
0
 70
     0
 62
     7
  6
Continuous
370
    -3
390
F
  0
ENDTAB
  0
TABLE
  2
STYLE
  5
3
330
0
100
AcDbSymbolTable
 70
     1
  0
STYLE
  5
11
330
3
100
AcDbSymbolTableRecord
100
AcDbTextStyleTableRecord
  2
Standard
 70
     0
 40
0.0
 41
1.0
 50
0.0
 71
     0
 42
3.5
  3
txt
  4

  0
ENDTAB
  0
TABLE
  2
VIEW
  5
6
330
0
100
AcDbSymbolTable
 70
     0
  0
ENDTAB
  0
TABLE
  2
UCS
  5
7
330
0
100
AcDbSymbolTable
 70
     0
  0
ENDTAB
  0
TABLE
  2
APPID
  5
9
330
0
100
AcDbSymbolTable
 70
     1
  0
APPID
  5
12
330
9
100
AcDbSymbolTableRecord
100
AcDbRegAppTableRecord
  2
ACAD
 70
     0
  0
ENDTAB
  0
TABLE
  2
DIMSTYLE
  5
A
330
0
100
AcDbSymbolTable
 70
     1
100
AcDbDimStyleTable
  0
DIMSTYLE
105
27
330
A
100
AcDbSymbolTableRecord
100
AcDbDimStyleTableRecord
  2
ISO-25
 70
     0
 41
2.5
 42
0.625
 43
3.75
 44
1.25
 73
     0
 74
     0
 77
     1
 78
     8
140
2.5
141
2.5
143
0.0393700787
147
0.625
171
     3
172
     1
178
     0
271
     2
272
     2
274
     3
278
    44
283
     0
284
     8
340
11
  0
ENDTAB
  0
TABLE
  2
BLOCK_RECORD
  5
1
330
0
100
AcDbSymbolTable
 70
     1
  0
BLOCK_RECORD
  5
1F
330
1
100
AcDbSymbolTableRecord
100
AcDbBlockTableRecord
  2
*Model_Space
340
22
  0
BLOCK_RECORD
  5
1B
330
1
100
AcDbSymbolTableRecord
100
AcDbBlockTableRecord
  2
*Paper_Space
340
1E
  0
BLOCK_RECORD
  5
23
330
1
100
AcDbSymbolTableRecord
100
AcDbBlockTableRecord
  2
*Paper_Space0
340
26
  0
ENDTAB
  0
ENDSEC
  0
SECTION
  2
BLOCKS
  0
BLOCK
  5
20
330
1F
100
AcDbEntity
  8
0
100
AcDbBlockBegin
  2
*Model_Space
 70
     0
 10
0.0
 20
0.0
 30
0.0
  3
*Model_Space
  1

  0
ENDBLK
  5
21
330
1F
100
AcDbEntity
  8
0
100
AcDbBlockEnd
  0
BLOCK
  5
1C
330
1B
100
AcDbEntity
 67
     1
  8
0
100
AcDbBlockBegin
  2
*Paper_Space
 70
     0
 10
0.0
 20
0.0
 30
0.0
  3
*Paper_Space
  1

  0
ENDBLK
  5
1D
330
1B
100
AcDbEntity
 67
     1
  8
0
100
AcDbBlockEnd
  0
BLOCK
  5
24
330
23
100
AcDbEntity
  8
0
100
AcDbBlockBegin
  2
*Paper_Space0
 70
     0
 10
0.0
 20
0.0
 30
0.0
  3
*Paper_Space0
  1

  0
ENDBLK
  5
25
330
23
100
AcDbEntity
  8
0
100
AcDbBlockEnd
  0
ENDSEC
  0
SECTION
  2
ENTITIES
  0
CIRCLE
  5
63
330
1F
100
AcDbEntity
  8
0
  6
Continuous
 62
     7
370
    25
100
AcDbCircle
 10
-19.918584287
 20
-11.5
 30
0.0
 40
8.5
  0
CIRCLE
  5
64
330
1F
100
AcDbEntity
  8
0
  6
Continuous
 62
     7
370
    25
100
AcDbCircle
 10
19.918584287
 20
-11.5
 30
0.0
 40
8.5
  0
CIRCLE
  5
65
330
1F
100
AcDbEntity
  8
0
  6
Continuous
 62
     7
370
    25
100
AcDbCircle
 10
0.0
 20
23.0
 30
0.0
 40
8.500000000000002
  0
SPLINE
  5
66
330
1F
100
AcDbEntity
  8
0
  6
Continuous
 62
     7
370
    25
100
AcDbSpline
210
0.0
220
0.0
230
1.0
 70
     8
 71
     4
 72
   160
 73
   155
 74
     0
 42
0.00000001
 43
0.00000001
 40
0.0708257289393134
 40
0.0708257289393134
 40
0.0708257289393134
 40
0.0708257289393134
 40
0.0708257289393134
 40
0.0724523895731911
 40
0.07326571989013
 40
0.0740790502070689
 40
0.0748923805240077
 40
0.0757057108409466
 40
0.0773323714748243
 40
0.0789590321087021
 40
0.0805856927425798
 40
0.0822123533764575
 40
0.0838390140103352
 40
0.085465674644213
 40
0.0870923352780907
 40
0.0903456565458462
 40
0.0935989778136016
 40
0.0968522990813571
 40
0.1015365150580047
 40
0.1062207310346523
 40
0.1109049470112999
 40
0.1155891629879476
 40
0.1220933803127239
 40
0.1285975976375004
 40
0.1350199606986825
 40
0.1414423237598648
 40
0.1460014128070112
 40
0.1505605018541577
 40
0.1551195909013041
 40
0.1596786799484506
 40
0.1725270595648851
 40
0.1853754391813197
 40
0.1984181260904142
 40
0.2114608129995087
 40
0.2162232552103756
 40
0.2209856974212424
 40
0.2257481396321092
 40
0.230510581842976
 40
0.2370302935151804
 40
0.2435500051873846
 40
0.2563038087605871
 40
0.2653583315974508
 40
0.2744128544343145
 40
0.2871691452895279
 40
0.2999254361447413
 40
0.3064925371992008
 40
0.3130596382536601
 40
0.3196267393081195
 40
0.3261938403625789
 40
0.3285911994283351
 40
0.3309885584940913
 40
0.3357832766256036
 40
0.3381806356913598
 40
0.340577994757116
 40
0.3453727128886284
 40
0.3519375613002074
 40
0.3585024097117864
 40
0.3650672581233453
 40
0.3716321065349041
 40
0.3764268246664025
 40
0.3812215427979009
 40
0.3860162609293992
 40
0.3908109790608977
 40
0.3973780801153377
 40
0.4039451811697777
 40
0.4170793832786578
 40
0.4298356741339127
 40
0.43621381956154
 40
0.4425919649891675
 40
0.4471192264076129
 40
0.4516464878260583
 40
0.4561737492445038
 40
0.4607010106629492
 40
0.4734548142361883
 40
0.479974525908372
 40
0.4864942375805558
 40
0.4912566797914086
 40
0.4960191220022615
 40
0.5007815642131144
 40
0.5055440064239672
 40
0.5185866933330231
 40
0.531629380242079
 40
0.5444777598585548
 40
0.5573261394750308
 40
0.5618852285221911
 40
0.5664443175693515
 40
0.5710034066165118
 40
0.5755624956636721
 40
0.5819848587248727
 40
0.5884072217860733
 40
0.5949114391108504
 40
0.6014156564356277
 40
0.6060998724122749
 40
0.6107840883889223
 40
0.6154683043655695
 40
0.6201525203422168
 40
0.6331658054132364
 40
0.6461790904842558
 40
0.659192375555296
 40
0.6722056606263361
 40
0.6768898766029906
 40
0.681574092579645
 40
0.6862583085562994
 40
0.6909425245329538
 40
0.6974467418577396
 40
0.7039509591825254
 40
0.7103733222437175
 40
0.7167956853049096
 40
0.7213547743520631
 40
0.7259138633992165
 40
0.7304729524463699
 40
0.7350320414935233
 40
0.747880421109978
 40
0.7607288007264326
 40
0.7737714876355071
 40
0.7868141745445816
 40
0.7915766167554413
 40
0.7963390589663012
 40
0.801101501177161
 40
0.8058639433880207
 40
0.8123836550602153
 40
0.8189033667324098
 40
0.831657170305632
 40
0.8361844317240706
 40
0.8407116931425094
 40
0.845238954560948
 40
0.8497662159793866
 40
0.8561443614070033
 40
0.8625225068346202
 40
0.8752787976898537
 40
0.8818458987443032
 40
0.8884129997987527
 40
0.8949801008532022
 40
0.9015472019076517
 40
0.9063419200391569
 40
0.9087392791049095
 40
0.9111366381706621
 40
0.9135339972364147
 40
0.9159313563021673
 40
0.9183287153679199
 40
0.9207260744336725
 40
0.9223672865365649
 40
0.9240084986394572
 40
0.9256497107423496
 40
0.9264703167937958
 40
0.927290922845242
 40
0.9281115288966881
 40
0.9289321349481343
 40
0.9297527409995805
 40
0.9305733470510267
 40
0.9313939531024729
 40
0.932214559153919
 40
0.9330351652053652
 40
0.9338557712568114
 40
0.9338557712568114
 40
0.9338557712568114
 40
0.9338557712568114
 40
0.9338557712568114
 10
36.99999999999999
 20
-0.0000000001219612
 30
0.0
 10
36.99999999999887
 20
0.0533528732829264
 30
0.0
 10
37.00097985984881
 20
0.1335340528669554
 30
0.0
 10
37.00424606011665
 20
0.2695862243552031
 30
0.0
 10
37.01158902478586
 20
0.433066648691281
 30
0.0
 10
37.01941592313048
 20
0.5583513387011391
 30
0.0
 10
37.03163418323233
 20
0.7108578073786523
 30
0.0
 10
37.05017942419364
 20
0.8937285286684326
 30
0.0
 10
37.07744681183141
 20
1.109379842459637
 30
0.0
 10
37.11625369067298
 20
1.353582746240018
 30
0.0
 10
37.16260444514683
 20
1.596443845412509
 30
0.0
 10
37.21637723867627
 20
1.837879162818985
 30
0.0
 10
37.27741709993525
 20
2.077549654100061
 30
0.0
 10
37.36261242789666
 20
2.374730280758905
 30
0.0
 10
37.47857496020676
 20
2.727184292156697
 30
0.0
 10
37.63303459102762
 20
3.131674523014704
 30
0.0
 10
37.8548617664794
 20
3.633998473797422
 30
0.0
 10
38.12657846893603
 20
4.17303194428863
 30
0.0
 10
38.44461708330635
 20
4.748588597713018
 30
0.0
 10
38.78318287852638
 20
5.375443562680358
 30
0.0
 10
39.0753125222595
 20
6.103088580033058
 30
0.0
 10
39.24509363775737
 20
6.942158059507192
 30
0.0
 10
39.24295249924797
 20
7.865782472148354
 30
0.0
 10
39.03051165428278
 20
8.83280231719121
 30
0.0
 10
38.64897071025099
 20
9.66504768357356
 30
0.0
 10
38.1549726691016
 20
10.34453852899133
 30
0.0
 10
37.60161719327579
 20
10.87477533783521
 30
0.0
 10
37.05307474889245
 20
11.29886811282556
 30
0.0
 10
36.24788934830588
 20
11.9051590040464
 30
0.0
 10
35.24678048723656
 20
12.77473386906409
 30
0.0
 10
34.20266028751767
 20
14.06870125204247
 30
0.0
 10
33.3774956477413
 20
15.8781250186152
 30
0.0
 10
33.08533620539198
 20
17.53119728540316
 30
0.0
 10
33.0962911351215
 20
18.88797133431906
 30
0.0
 10
33.18477224550865
 20
19.92267595130056
 30
0.0
 10
33.24298410712656
 20
20.64464847000091
 30
0.0
 10
33.21886986948743
 20
21.43786126540079
 30
0.0
 10
33.03762153924045
 20
22.28175126409747
 30
0.0
 10
32.56091801027355
 20
23.35177083749733
 30
0.0
 10
31.69880572375967
 20
24.38326318208557
 30
0.0
 10
30.45283234921702
 20
25.14875341962439
 30
0.0
 10
28.81756799527855
 20
25.47266000081566
 30
0.0
 10
27.21805887221626
 20
25.90530372110385
 30
0.0
 10
25.80252760145719
 20
26.61516732016972
 30
0.0
 10
24.64906923058987
 20
27.53459471095873
 30
0.0
 10
23.82281861868613
 20
28.45709458392868
 30
0.0
 10
23.25510048548667
 20
29.28017483621066
 30
0.0
 10
22.86151290991653
 20
30.02487934461475
 30
0.0
 10
22.59366800264045
 20
30.65144489692294
 30
0.0
 10
22.37659117607293
 20
31.22609787140517
 30
0.0
 10
22.22656136621877
 20
31.65608004248984
 30
0.0
 10
22.07589113882296
 20
32.08619375190717
 30
0.0
 10
21.86963953257241
 20
32.59262515219134
 30
0.0
 10
21.59180338110636
 20
33.14150557815153
 30
0.0
 10
21.13704402923437
 20
33.7721901946033
 30
0.0
 10
20.44450465834804
 20
34.40515942610493
 30
0.0
 10
19.57352494657925
 20
34.90815261766284
 30
0.0
 10
18.67905630785762
 20
35.19114699859264
 30
0.0
 10
17.81417872559256
 20
35.27933238046631
 30
0.0
 10
17.01792964981326
 20
35.21290787046254
 30
0.0
 10
16.3018267425752
 20
35.07648132672092
 30
0.0
 10
15.51944270708821
 20
34.92840245538493
 30
0.0
 10
14.66252308089351
 20
34.81468645313432
 30
0.0
 10
13.48033228956753
 20
34.76979977773641
 30
0.0
 10
11.99920064388923
 20
34.94870834975105
 30
0.0
 10
10.58841664997161
 20
35.43563669180603
 30
0.0
 10
9.323110596289249
 20
36.19691253703829
 30
0.0
 10
8.442374814012004
 20
36.92670683981007
 30
0.0
 10
7.850909823362191
 20
37.50819088455794
 30
0.0
 10
7.333854156545555
 20
38.06331947793472
 30
0.0
 10
6.856533472823884
 20
38.55925329060427
 30
0.0
 10
6.084466158886059
 20
39.20221993086707
 30
0.0
 10
5.096453051918409
 20
39.67167747713064
 30
0.0
 10
3.941760000175111
 20
39.87585580278888
 30
0.0
 10
2.77829701924117
 20
39.75154574236943
 30
0.0
 10
1.95594205526077
 20
39.48780414311794
 30
0.0
 10
1.257525509881813
 20
39.11128048983141
 30
0.0
 10
0.6610476897941806
 20
38.70034429370126
 30
0.0
 10
-0.1906126735656086
 20
38.10611875311182
 30
0.0
 10
-1.360254548951658
 20
37.41840677308679
 30
0.0
 10
-2.937854825102191
 20
36.84477638181963
 30
0.0
 10
-4.91750049932207
 20
36.65475412518907
 30
0.0
 10
-6.56013118393987
 20
36.91195486003059
 30
0.0
 10
-7.813784142386643
 20
37.34418391140022
 30
0.0
 10
-8.74142322932747
 20
37.73833082440116
 30
0.0
 10
-9.382986221381895
 20
38.00135041008345
 30
0.0
 10
-10.11883961050053
 20
38.21543592292581
 30
0.0
 10
-10.95433027322334
 20
38.30352779653796
 30
0.0
 10
-11.86578964195047
 20
38.21779460357774
 30
0.0
 10
-12.80956354575501
 20
37.91831780853141
 30
0.0
 10
-13.61037549360979
 20
37.45827574572013
 30
0.0
 10
-14.25236294739083
 20
36.89183881457797
 30
0.0
 10
-14.73608947288692
 20
36.27480593440617
 30
0.0
 10
-15.11037991339882
 20
35.66858751098077
 30
0.0
 10
-15.63965607304261
 20
34.78682318278041
 30
0.0
 10
-16.41580475232334
 20
33.68422765739646
 30
0.0
 10
-17.61339837083683
 20
32.50666940456776
 30
0.0
 10
-19.34490231135714
 20
31.50698513842386
 30
0.0
 10
-20.96349448197352
 20
31.05861776776345
 30
0.0
 10
-22.30644455673583
 20
30.93775105711339
 30
0.0
 10
-23.33471294487351
 20
30.92026662130523
 30
0.0
 10
-24.04685872016864
 20
30.89923080320944
 30
0.0
 10
-24.82308813192178
 20
30.78882778361375
 30
0.0
 10
-25.63463063115
 20
30.51606880549702
 30
0.0
 10
-26.43344471774417
 20
30.05256634608234
 30
0.0
 10
-27.16468618286229
 20
29.38497256800137
 30
0.0
 10
-27.6946629889195
 20
28.63849219583012
 30
0.0
 10
-28.03611852201901
 20
27.87089012177821
 30
0.0
 10
-28.21864172033714
 20
27.12657963479205
 30
0.0
 10
-28.31164158002773
 20
26.43945999664922
 30
0.0
 10
-28.43411987114852
 20
25.43902751757592
 30
0.0
 10
-28.68662503582897
 20
24.13721769690525
 30
0.0
 10
-29.2851979665697
 20
22.58605740271374
 30
0.0
 10
-30.43958496896739
 20
20.96664512501756
 30
0.0
 10
-31.72516350386074
 20
19.88721834769879
 30
0.0
 10
-32.90556062434728
 20
19.21813484306821
 30
0.0
 10
-33.8460050104911
 20
18.77768797741568
 30
0.0
 10
-34.50012549990085
 20
18.46659136760475
 30
0.0
 10
-35.17541213666233
 20
18.05000631159533
 30
0.0
 10
-35.8149976171863
 20
17.46969746726011
 30
0.0
 10
-36.50438283846125
 20
16.52426283296636
 30
0.0
 10
-36.90490908157742
 20
15.42218215936479
 30
0.0
 10
-36.99234849238566
 20
14.3318059397351
 30
0.0
 10
-36.82156356581115
 20
13.34169683918641
 30
0.0
 10
-36.63071840736423
 20
12.68034954178936
 30
0.0
 10
-36.40852054889033
 20
11.95501980736571
 30
0.0
 10
-36.2006220142032
 20
11.15202337831438
 30
0.0
 10
-36.00905910790244
 20
10.02444042501642
 30
0.0
 10
-35.98681270030144
 20
8.798814705001657
 30
0.0
 10
-36.17021547222475
 20
7.578337945590841
 30
0.0
 10
-36.5559713148315
 20
6.403267497086251
 30
0.0
 10
-36.98492609573393
 20
5.498908372430376
 30
0.0
 10
-37.48168312080878
 20
4.709256858549692
 30
0.0
 10
-37.95291862967059
 20
4.096180365527347
 30
0.0
 10
-38.34984735977746
 20
3.627713202520412
 30
0.0
 10
-38.64711510326985
 20
3.282501030877745
 30
0.0
 10
-38.88131335197733
 20
3.003243591971329
 30
0.0
 10
-39.10494529931192
 20
2.715281304719751
 30
0.0
 10
-39.3106639450896
 20
2.414096923498244
 30
0.0
 10
-39.47874870033914
 20
2.123083835465669
 30
0.0
 10
-39.61267859166875
 20
1.846597500242331
 30
0.0
 10
-39.71751112448321
 20
1.588706673057014
 30
0.0
 10
-39.78824567168321
 20
1.382030281181067
 30
0.0
 10
-39.84054216526525
 20
1.20239322492611
 30
0.0
 10
-39.87853611158876
 20
1.051085090180434
 30
0.0
 10
-39.90556995256163
 20
0.9290825643575105
 30
0.0
 10
-39.92923544999544
 20
0.8064186687920577
 30
0.0
 10
-39.94952738540685
 20
0.6838117511299522
 30
0.0
 10
-39.966441929623
 20
0.5615968623004013
 30
0.0
 10
-39.97997631519632
 20
0.437841110081951
 30
0.0
 10
-39.99012859078701
 20
0.308512197201863
 30
0.0
 10
-39.9968974391528
 20
0.173969706788081
 30
0.0
 10
-39.99943589782008
 20
0.0811021319366173
 30
0.0
 10
-40.00000000000991
 20
0.0269150726928036
 30
0.0
 10
-40.00000000000001
 20
-0.0000000012587555
 30
0.0
  0
SPLINE
  5
67
330
1F
100
AcDbEntity
  8
0
  6
Continuous
 62
     7
370
    25
100
AcDbSpline
210
0.0
220
0.0
230
1.0
 70
     8
 71
     4
 72
   157
 73
   152
 74
     0
 42
0.00000001
 43
0.00000001
 40
0.0661442599219772
 40
0.0661442599219772
 40
0.0661442599219772
 40
0.0661442599219772
 40
0.0661442599219772
 40
0.0669648659027524
 40
0.0677854718835276
 40
0.0686060778643027
 40
0.069426683845078
 40
0.0702472898258533
 40
0.0710678958066284
 40
0.0727091077681787
 40
0.074350319729729
 40
0.0759915316912795
 40
0.0776327436528299
 40
0.0792739556143802
 40
0.0840686733329617
 40
0.0888633910515433
 40
0.0936581087701247
 40
0.0984528264887062
 40
0.1050199269775935
 40
0.1115870274664808
 40
0.1181541279553682
 40
0.1247212284442555
 40
0.1310993733225942
 40
0.1374775182009331
 40
0.1438556630792719
 40
0.1502338079576107
 40
0.1592883300147225
 40
0.1683428520718345
 40
0.1747197533092726
 40
0.1810966545467108
 40
0.1876163656574248
 40
0.1941360767681388
 40
0.1988985185688557
 40
0.2036609603695726
 40
0.2084234021702895
 40
0.2131858439710064
 40
0.2197071868639238
 40
0.2262285297568412
 40
0.2392712155426759
 40
0.2456954047976598
 40
0.2521195940526438
 40
0.2585437833076278
 40
0.2649679725626117
 40
0.2740861498716711
 40
0.2832043271807306
 40
0.2896266896888346
 40
0.2960490521969386
 40
0.30255326896158
 40
0.3090574857262215
 40
0.3184259168727179
 40
0.3277943480192143
 40
0.3343009899943796
 40
0.340807631969545
 40
0.3473142739447104
 40
0.3538209159198759
 40
0.3668341998702058
 40
0.3733408418453708
 40
0.3798474838205357
 40
0.3892159149670315
 40
0.3985843461135272
 40
0.4050885628781671
 40
0.4115927796428069
 40
0.4180151421509093
 40
0.4244375046590116
 40
0.4335556819680699
 40
0.4426738592771283
 40
0.4490980485321103
 40
0.4555222377870924
 40
0.4619464270420746
 40
0.4683706162970567
 40
0.4814133020828932
 40
0.4879346449758115
 40
0.4944559878687298
 40
0.499218429669447
 40
0.5039808714701641
 40
0.5087433132708813
 40
0.5135057550715985
 40
0.5200254661823138
 40
0.5265451772930293
 40
0.5329220785304635
 40
0.5392989797678978
 40
0.5483535018250052
 40
0.5574080238821126
 40
0.5637861687604474
 40
0.5701643136387823
 40
0.5765424585171172
 40
0.5829206033954519
 40
0.5960548043732359
 40
0.602621904862128
 40
0.6091890053510198
 40
0.6139837230696044
 40
0.6187784407881889
 40
0.6235731585067734
 40
0.628367876225358
 40
0.6349327240715632
 40
0.6414975719177685
 40
0.6480624197639742
 40
0.6546272676101799
 40
0.6594219853287651
 40
0.6642167030473501
 40
0.6690114207659352
 40
0.6738061384845203
 40
0.6803732389734128
 40
0.6869403394623054
 40
0.6935074399511979
 40
0.7000745404400903
 40
0.7064526853184245
 40
0.7128308301967587
 40
0.719208975075093
 40
0.7255871199534272
 40
0.7346416420105334
 40
0.7436961640676396
 40
0.7500730653050737
 40
0.7564499665425077
 40
0.7629696776532237
 40
0.7694893887639396
 40
0.7742518305646573
 40
0.7790142723653751
 40
0.783776714166093
 40
0.7885391559668107
 40
0.7950604988597294
 40
0.8015818417526481
 40
0.8146245275384856
 40
0.821048716793467
 40
0.8274729060484485
 40
0.8338970953034299
 40
0.8403212845584114
 40
0.8494394618674685
 40
0.8585576391765256
 40
0.8649800016846277
 40
0.87140236419273
 40
0.8772489485505587
 40
0.8830955329083874
 40
0.8868517120084126
 40
0.8906078911084379
 40
0.8943640702084631
 40
0.8981202493084883
 40
0.9010435208364211
 40
0.9039667923643538
 40
0.9098133354202194
 40
0.9156598784760849
 40
0.9171215142400513
 40
0.9185831500040177
 40
0.9200447857679841
 40
0.9215064215319504
 40
0.9234233854390056
 40
0.9253403493460607
 40
0.9262988312995883
 40
0.9272573132531159
 40
0.9282157952066434
 40
0.929174277160171
 40
0.929174277160171
 40
0.929174277160171
 40
0.929174277160171
 40
0.929174277160171
 10
-40.00000000000004
 20
-0.0000000012006657
 30
0.0
 10
-39.99999999999964
 20
-0.026915074060504
 30
0.0
 10
-39.99943589448578
 20
-0.0812067910135195
 30
0.0
 10
-39.99689740957206
 20
-0.1759354773772765
 30
0.0
 10
-39.99012853042414
 20
-0.3108167506413958
 30
0.0
 10
-39.97997640283862
 20
-0.4381042090862182
 30
0.0
 10
-39.96644218384374
 20
-0.560824818999896
 30
0.0
 10
-39.94529899535605
 20
-0.7140324425282885
 30
0.0
 10
-39.9131673862182
 20
-0.8990051212333947
 30
0.0
 10
-39.86587362152213
 20
-1.112280963741695
 30
0.0
 10
-39.79831455904162
 20
-1.352462416459838
 30
0.0
 10
-39.71757871754868
 20
-1.588781599175616
 30
0.0
 10
-39.57819762775047
 20
-1.930892753958017
 30
0.0
 10
-39.3529862285114
 20
-2.366627777715275
 30
0.0
 10
-39.00409236120488
 20
-2.868313104618065
 30
0.0
 10
-38.52809697054752
 20
-3.420524046718726
 30
0.0
 10
-38.00860501341411
 20
-4.023960492287091
 30
0.0
 10
-37.48160849989495
 20
-4.709168384161413
 30
0.0
 10
-36.98498623819507
 20
-5.499015410258938
 30
0.0
 10
-36.55591314124921
 20
-6.403126162869509
 30
0.0
 10
-36.24609489504392
 20
-7.347633334221673
 30
0.0
 10
-36.05919091465762
 20
-8.31604047909036
 30
0.0
 10
-35.99601199738112
 20
-9.293835891977286
 30
0.0
 10
-36.0493402130725
 20
-10.26320608081026
 30
0.0
 10
-36.23023690353359
 20
-11.32304564176792
 30
0.0
 10
-36.54760745062497
 20
-12.45042522870965
 30
0.0
 10
-36.92663339556428
 20
-13.56728463743597
 30
0.0
 10
-36.98062554827225
 20
-14.7573135965626
 30
0.0
 10
-36.76025416863415
 20
-15.81776044591628
 30
0.0
 10
-36.36096684847706
 20
-16.72207638678565
 30
0.0
 10
-35.81471014827682
 20
-17.46941942566535
 30
0.0
 10
-35.17555966233709
 20
-18.05010461704298
 30
0.0
 10
-34.50008465395119
 20
-18.46665169028044
 30
0.0
 10
-33.84590289020199
 20
-18.77737139121994
 30
0.0
 10
-33.13017227057579
 20
-19.11357345838157
 30
0.0
 10
-32.37347898155463
 20
-19.51908126410624
 30
0.0
 10
-31.39325213519282
 20
-20.16642811413461
 30
0.0
 10
-30.4756958503151
 20
-21.0046779309938
 30
0.0
 10
-29.71454035389551
 20
-21.98313093241378
 30
0.0
 10
-29.13220630502136
 20
-23.06827765274156
 30
0.0
 10
-28.77642720972599
 20
-23.97955674916899
 30
0.0
 10
-28.50298045274503
 20
-25.02704628185953
 30
0.0
 10
-28.3268560933246
 20
-26.19381674509878
 30
0.0
 10
-28.22424746983735
 20
-27.37681676279791
 30
0.0
 10
-27.79590698661976
 20
-28.49727862204625
 30
0.0
 10
-27.16484504508963
 20
-29.38444669316636
 30
0.0
 10
-26.43289817170944
 20
-30.05274818469638
 30
0.0
 10
-25.48067958000957
 20
-30.60619714847908
 30
0.0
 10
-24.29883224973298
 20
-30.93341771507347
 30
0.0
 10
-23.0854290498297
 20
-30.90865249536254
 30
0.0
 10
-21.88172113329555
 20
-30.96450041856237
 30
0.0
 10
-20.79308527360713
 20
-31.13467794237328
 30
0.0
 10
-19.83930859849318
 20
-31.40312616980993
 30
0.0
 10
-18.69534486226474
 20
-31.88116430192094
 30
0.0
 10
-17.64516914723719
 20
-32.54936678363741
 30
0.0
 10
-16.72268504508048
 20
-33.3819874344688
 30
0.0
 10
-15.87518654059535
 20
-34.4321344486227
 30
0.0
 10
-15.22495963233231
 20
-35.44705613437566
 30
0.0
 10
-14.63971195160864
 20
-36.51002904176816
 30
0.0
 10
-13.76540305514507
 20
-37.37005965458945
 30
0.0
 10
-12.80999508973559
 20
-37.91791010027414
 30
0.0
 10
-11.865254320846
 20
-38.21768403299469
 30
0.0
 10
-10.78141403614451
 20
-38.3205912125964
 30
0.0
 10
-9.596894827554408
 20
-38.13133091306474
 30
0.0
 10
-8.521082832991835
 20
-37.62868027886855
 30
0.0
 10
-7.422567545081659
 20
-37.19783125284052
 30
0.0
 10
-6.378691755184467
 20
-36.91089368467148
 30
0.0
 10
-5.411611298602482
 20
-36.76337049617447
 30
0.0
 10
-4.180679660006898
 20
-36.72511153635376
 30
0.0
 10
-2.952736789250655
 20
-36.89506632933363
 30
0.0
 10
-1.768012922048459
 20
-37.27056748925185
 30
0.0
 10
-0.7172808267625529
 20
-37.79579616206833
 30
0.0
 10
0.012246130832951
 20
-38.24835713923787
 30
0.0
 10
0.661270519919729
 20
-38.70009799765164
 30
0.0
 10
1.257453315753927
 20
-39.11127468558686
 30
0.0
 10
1.955929975138038
 20
-39.48798191235007
 30
0.0
 10
2.778395229464706
 20
-39.75115636603823
 30
0.0
 10
3.698738629642718
 20
-39.8505626003517
 30
0.0
 10
4.681547406441945
 20
-39.74418919237086
 30
0.0
 10
5.710099738475045
 20
-39.40482642395513
 30
0.0
 10
6.71371211238869
 20
-38.76302907138283
 30
0.0
 10
7.491403013789972
 20
-37.87639902266883
 30
0.0
 10
8.309098279132241
 20
-37.0377821478206
 30
0.0
 10
9.136432454625082
 20
-36.3513222472567
 30
0.0
 10
9.949378285721656
 20
-35.82024895527617
 30
0.0
 10
11.05198173610973
 20
-35.27553442182607
 30
0.0
 10
12.2411490305101
 20
-34.91956492432769
 30
0.0
 10
13.4804151310386
 20
-34.76974442363188
 30
0.0
 10
14.66247781346455
 20
-34.81471342708587
 30
0.0
 10
15.51947402706915
 20
-34.928387551022
 30
0.0
 10
16.30180387722383
 20
-35.07648710764036
 30
0.0
 10
17.01795038193396
 20
-35.21290810336856
 30
0.0
 10
17.81415337091654
 20
-35.27932883680543
 30
0.0
 10
18.67909395391775
 20
-35.19115510464341
 30
0.0
 10
19.57346611274474
 20
-34.90813776747585
 30
0.0
 10
20.4445965468598
 20
-34.40518396270179
 30
0.0
 10
21.13689631526583
 20
-33.77214999213696
 30
0.0
 10
21.64570274663516
 20
-33.06717188635341
 30
0.0
 10
21.98632536221223
 20
-32.34443322348161
 30
0.0
 10
22.22616839246719
 20
-31.65601735887661
 30
0.0
 10
22.48924024584799
 20
-30.90445635911968
 30
0.0
 10
22.81900997394968
 20
-30.10542897204756
 30
0.0
 10
23.25481328850111
 20
-29.28043731987904
 30
0.0
 10
23.82320693261336
 20
-28.45678199912329
 30
0.0
 10
24.4862962732713
 20
-27.71622490971027
 30
0.0
 10
25.23149079852966
 20
-27.07015357788951
 30
0.0
 10
26.04670806035742
 20
-26.52654379204712
 30
0.0
 10
26.91286503642119
 20
-26.08804086656342
 30
0.0
 10
27.9211650138129
 20
-25.71478304085644
 30
0.0
 10
29.05618735058519
 20
-25.42594367047646
 30
0.0
 10
30.21293035657011
 20
-25.19576040968683
 30
0.0
 10
31.27052094394636
 20
-24.6475042844506
 30
0.0
 10
32.07870968010921
 20
-23.92643382544824
 30
0.0
 10
32.66222614577784
 20
-23.1284826807911
 30
0.0
 10
33.03631637146321
 20
-22.2817392901385
 30
0.0
 10
33.21962856856345
 20
-21.43787566619908
 30
0.0
 10
33.24263246628331
 20
-20.6446243852739
 30
0.0
 10
33.18463075430599
 20
-19.92272501080503
 30
0.0
 10
33.11792867492893
 20
-19.13478589924817
 30
0.0
 10
33.09075590595236
 20
-18.27671165363749
 30
0.0
 10
33.16127244989993
 20
-17.10414541628243
 30
0.0
 10
33.42842087560958
 20
-15.89037884969525
 30
0.0
 10
33.89523703348117
 20
-14.74199437865422
 30
0.0
 10
34.54379504978844
 20
-13.69507461010649
 30
0.0
 10
35.15516003003757
 20
-12.9313701168239
 30
0.0
 10
35.9254755379451
 20
-12.170726431147
 30
0.0
 10
36.84806375100392
 20
-11.43496436641593
 30
0.0
 10
37.82096458261264
 20
-10.75437062155704
 30
0.0
 10
38.57755975782267
 20
-9.823505319136428
 30
0.0
 10
39.01928538614322
 20
-8.855824088831229
 30
0.0
 10
39.22857046880362
 20
-7.939956237970275
 30
0.0
 10
39.24795533846211
 20
-7.103857197146002
 30
0.0
 10
39.13785589145181
 20
-6.378800098692397
 30
0.0
 10
38.94176898355206
 20
-5.756697541416334
 30
0.0
 10
38.70692772033252
 20
-5.235202276866304
 30
0.0
 10
38.45045988699464
 20
-4.760622269572496
 30
0.0
 10
38.20595221925102
 20
-4.315706499352561
 30
0.0
 10
37.93344138988383
 20
-3.795551093222857
 30
0.0
 10
37.65027285792769
 20
-3.191702621775053
 30
0.0
 10
37.43260764399766
 20
-2.619670239894202
 30
0.0
 10
37.27599878005395
 20
-2.08621799610786
 30
0.0
 10
37.18673056563203
 20
-1.707704996347135
 30
0.0
 10
37.14166676855887
 20
-1.490121949483104
 30
0.0
 10
37.09959657626963
 20
-1.254145629451472
 30
0.0
 10
37.06229501108476
 20
-1.000704503452601
 30
0.0
 10
37.03577853883937
 20
-0.7626136634528962
 30
0.0
 10
37.01813006726809
 20
-0.5474359784246303
 30
0.0
 10
37.0079356987854
 20
-0.3659620414456611
 30
0.0
 10
37.00249482317898
 20
-0.2099603189177063
 30
0.0
 10
37.00045360399133
 20
-0.0949999872244871
 30
0.0
 10
37.00000000000008
 20
-0.0314372698931397
 30
0.0
 10
37.0
 20
-0.0000000000805674
 30
0.0
  0
CIRCLE
  5
68
330
1F
100
AcDbEntity
  8
0
  6
Continuous
 62
     7
370
    25
100
AcDbCircle
 10
0.0
 20
0.0
 30
0.0
 40
10.5
  0
CIRCLE
  5
69
330
1F
100
AcDbEntity
  8
0
  6
Continuous
 62
     7
370
    25
100
AcDbCircle
 10
19.918584287
 20
11.5
 30
0.0
 40
8.5
  0
CIRCLE
  5
6A
330
1F
100
AcDbEntity
  8
0
  6
Continuous
 62
     7
370
    25
100
AcDbCircle
 10
0.0
 20
-23.0
 30
0.0
 40
8.5
  0
CIRCLE
  5
6B
330
1F
100
AcDbEntity
  8
0
  6
Continuous
 62
     7
370
    25
100
AcDbCircle
 10
-19.918584287
 20
11.5
 30
0.0
 40
8.5
  0
ENDSEC
  0
SECTION
  2
OBJECTS
  0
DICTIONARY
  5
C
330
0
100
AcDbDictionary
281
     1
  3
ACAD_GROUP
350
D
  3
ACAD_LAYOUT
350
1A
  3
ACAD_MLINESTYLE
350
17
  3
ACAD_PLOTSETTINGS
350
19
  3
ACAD_PLOTSTYLENAME
350
E
  3
ACAD_SCALELIST
350
47
  3
DWGPROPS
350
6C
  0
DICTIONARY
  5
D
102
{ACAD_REACTORS
330
C
102
}
330
C
100
AcDbDictionary
281
     1
  0
DICTIONARY
  5
1A
102
{ACAD_REACTORS
330
C
102
}
330
C
100
AcDbDictionary
281
     1
  3
Layout1
350
1E
  3
Layout2
350
26
  3
Model
350
22
  0
DICTIONARY
  5
17
102
{ACAD_REACTORS
330
C
102
}
330
C
100
AcDbDictionary
281
     1
  3
Standard
350
18
  0
DICTIONARY
  5
19
102
{ACAD_REACTORS
330
C
102
}
330
C
100
AcDbDictionary
281
     1
  0
ACDBDICTIONARYWDFLT
  5
E
102
{ACAD_REACTORS
330
C
102
}
330
C
100
AcDbDictionary
281
     1
  3
Normal
350
F
100
AcDbDictionaryWithDefault
340
F
  0
DICTIONARY
  5
47
102
{ACAD_REACTORS
330
C
102
}
330
C
100
AcDbDictionary
281
     1
  3
A0
350
48
  3
A1
350
49
  3
A2
350
4A
  3
A3
350
4B
  3
A4
350
4C
  3
A5
350
4D
  3
A6
350
4E
  3
A7
350
4F
  3
A8
350
50
  3
A9
350
51
  3
B0
350
52
  3
B1
350
53
  3
B2
350
54
  3
B3
350
55
  3
B4
350
56
  3
B5
350
57
  3
B6
350
58
  0
XRECORD
  5
6C
102
{ACAD_REACTORS
330
C
102
}
330
C
100
AcDbXrecord
280
     1
  1
DWGPROPS COOKIE
  2

  3

  4

  6

  7

  8
ADMIN
  9

300
=
301
=
302
=
303
=
304
=
305
=
306
=
307
=
308
=
309
=
 40
0.0
 41
2461050.232851921
 42
2461050.232900301
  1

 90
        0
  0
LAYOUT
  5
1E
102
{ACAD_REACTORS
330
1A
102
}
330
1A
100
AcDbPlotSettings
  1

  2
none_device
  4

  6

 40
0.0
 41
0.0
 42
0.0
 43
0.0
 44
0.0
 45
0.0
 46
0.0
 47
0.0
 48
0.0
 49
0.0
140
0.0
141
0.0
142
1.0
143
1.0
 70
   688
 72
     1
 73
     0
 74
     5
  7

 75
    16
147
1.0
148
0.0
149
0.0
100
AcDbLayout
  1
Layout1
 70
     1
 71
     1
 10
0.0
 20
0.0
 11
420.0
 21
297.0
 12
0.0
 22
0.0
 32
0.0
 14
1.0000000000E+20
 24
1.0000000000E+20
 34
1.0000000000E+20
 15
-1.0000000000E+20
 25
-1.0000000000E+20
 35
-1.0000000000E+20
146
0.0
 13
0.0
 23
0.0
 33
0.0
 16
1.0
 26
0.0
 36
0.0
 17
0.0
 27
1.0
 37
0.0
 76
     0
330
1B
  0
LAYOUT
  5
26
102
{ACAD_REACTORS
330
1A
102
}
330
1A
100
AcDbPlotSettings
  1

  2
none_device
  4

  6

 40
0.0
 41
0.0
 42
0.0
 43
0.0
 44
0.0
 45
0.0
 46
0.0
 47
0.0
 48
0.0
 49
0.0
140
0.0
141
0.0
142
1.0
143
1.0
 70
   688
 72
     1
 73
     0
 74
     5
  7

 75
    16
147
1.0
148
0.0
149
0.0
100
AcDbLayout
  1
Layout2
 70
     1
 71
     2
 10
0.0
 20
0.0
 11
0.0
 21
0.0
 12
0.0
 22
0.0
 32
0.0
 14
0.0
 24
0.0
 34
0.0
 15
0.0
 25
0.0
 35
0.0
146
0.0
 13
0.0
 23
0.0
 33
0.0
 16
1.0
 26
0.0
 36
0.0
 17
0.0
 27
1.0
 37
0.0
 76
     0
330
23
  0
LAYOUT
  5
22
102
{ACAD_REACTORS
330
1A
102
}
330
1A
100
AcDbPlotSettings
  1

  2
none_device
  4
ANSI_A_(11.00_x_8.50_Inches)
  6

 40
6.35
 41
19.05
 42
6.35000508
 43
19.05000254
 44
279.4
 45
215.9
 46
134.4138320859
 47
88.9000671665
 48
0.0
 49
0.0
140
0.0
141
0.0
142
0.1057124989
143
1.0
 70
  1696
 72
     0
 73
     0
 74
     0
  7

 75
     0
147
0.0179189148
148
-1300.4909072572
149
0.0
100
AcDbLayout
  1
Model
 70
     1
 71
     0
 10
0.0
 20
0.0
 11
420.0
 21
297.0
 12
0.0
 22
0.0
 32
0.0
 14
-40.0
 24
-39.8013739162
 34
0.0
 15
39.2076007389
 25
39.8013229411
 35
0.0
146
0.0
 13
0.0
 23
0.0
 33
0.0
 16
1.0
 26
0.0
 36
0.0
 17
0.0
 27
1.0
 37
0.0
 76
     0
330
1F
331
29
  0
MLINESTYLE
  5
18
102
{ACAD_REACTORS
330
17
102
}
330
17
100
AcDbMlineStyle
  2
Standard
 70
     0
  3

 62
   256
 51
90.0
 52
90.0
 71
     2
 49
0.5
 62
   256
  6
BYLAYER
 49
-0.5
 62
   256
  6
BYLAYER
  0
ACDBPLACEHOLDER
  5
F
102
{ACAD_REACTORS
330
E
102
}
330
E
  0
SCALE
  5
48
102
{ACAD_REACTORS
330
47
102
}
330
47
100
AcDbScale
 70
     0
300
1:1
140
1.0
141
1.0
290
     1
  0
SCALE
  5
49
102
{ACAD_REACTORS
330
47
102
}
330
47
100
AcDbScale
 70
     0
300
1:2
140
1.0
141
2.0
290
     0
  0
SCALE
  5
4A
102
{ACAD_REACTORS
330
47
102
}
330
47
100
AcDbScale
 70
     0
300
1:4
140
1.0
141
4.0
290
     0
  0
SCALE
  5
4B
102
{ACAD_REACTORS
330
47
102
}
330
47
100
AcDbScale
 70
     0
300
1:5
140
1.0
141
5.0
290
     0
  0
SCALE
  5
4C
102
{ACAD_REACTORS
330
47
102
}
330
47
100
AcDbScale
 70
     0
300
1:8
140
1.0
141
8.0
290
     0
  0
SCALE
  5
4D
102
{ACAD_REACTORS
330
47
102
}
330
47
100
AcDbScale
 70
     0
300
1:10
140
1.0
141
10.0
290
     0
  0
SCALE
  5
4E
102
{ACAD_REACTORS
330
47
102
}
330
47
100
AcDbScale
 70
     0
300
1:16
140
1.0
141
16.0
290
     0
  0
SCALE
  5
4F
102
{ACAD_REACTORS
330
47
102
}
330
47
100
AcDbScale
 70
     0
300
1:20
140
1.0
141
20.0
290
     0
  0
SCALE
  5
50
102
{ACAD_REACTORS
330
47
102
}
330
47
100
AcDbScale
 70
     0
300
1:30
140
1.0
141
30.0
290
     0
  0
SCALE
  5
51
102
{ACAD_REACTORS
330
47
102
}
330
47
100
AcDbScale
 70
     0
300
1:40
140
1.0
141
40.0
290
     0
  0
SCALE
  5
52
102
{ACAD_REACTORS
330
47
102
}
330
47
100
AcDbScale
 70
     0
300
1:50
140
1.0
141
50.0
290
     0
  0
SCALE
  5
53
102
{ACAD_REACTORS
330
47
102
}
330
47
100
AcDbScale
 70
     0
300
1:100
140
1.0
141
100.0
290
     0
  0
SCALE
  5
54
102
{ACAD_REACTORS
330
47
102
}
330
47
100
AcDbScale
 70
     0
300
2:1
140
2.0
141
1.0
290
     0
  0
SCALE
  5
55
102
{ACAD_REACTORS
330
47
102
}
330
47
100
AcDbScale
 70
     0
300
4:1
140
4.0
141
1.0
290
     0
  0
SCALE
  5
56
102
{ACAD_REACTORS
330
47
102
}
330
47
100
AcDbScale
 70
     0
300
8:1
140
8.0
141
1.0
290
     0
  0
SCALE
  5
57
102
{ACAD_REACTORS
330
47
102
}
330
47
100
AcDbScale
 70
     0
300
10:1
140
10.0
141
1.0
290
     0
  0
SCALE
  5
58
102
{ACAD_REACTORS
330
47
102
}
330
47
100
AcDbScale
 70
     0
300
100:1
140
100.0
141
1.0
290
     0
  0
ENDSEC
  0
EOF
